<?xml version="1.0" encoding="utf-8"?>
<!-- Svg Vector Icons : http://www.onlinewebfonts.com/icon -->
<!DOCTYPE svg PUBLIC "-//W3C//DTD SVG 1.1//EN" "http://www.w3.org/Graphics/SVG/1.1/DTD/svg11.dtd">
<svg version="1.1" xmlns="http://www.w3.org/2000/svg" xmlns:xlink="http://www.w3.org/1999/xlink" x="0px" y="0px" viewBox="0 0 1000 1000" enable-background="new 0 0 1000 1000" xml:space="preserve">
<metadata> Svg Vector Icons : http://www.onlinewebfonts.com/icon </metadata>
<g><g><g><polygon points="841.1,333.6 841.1,115.7 704.6,115.7 704.6,199 "/><polygon points="856.2,115.7 856.2,80.3 685.8,80.3 685.8,115.7 699.1,123.7 699.1,108.3 847.7,108.3 847.7,119.5 "/><path d="M27.6,485.2h59.6l22.4-23.3v473.2h24.5v13.5l-24.5,11.9V990h325.9v-28l-25.9-14.7l-0.5-12.1h479.2V462.4l22.4,22.8h61.7L490.2,10L27.6,485.2z M391.1,910.4H159.4V732.8H356c1.7,12.8,8.8,22.4,17.4,22.4h17.8V910.4z M391.1,692.6c0,0-7.9,0-17.8,0c-8.8,0-16,10.1-17.5,23.4H159.4V538.4h231.8V692.6z M853.2,776.5v26.6H432.7v-26.6l18.7-7H835L853.2,776.5z M650,538.4h182.2v216.8H650V538.4z M633.2,755.2H464V538.4h169.1V755.2z M568.7,275.6v85.3h51.4v18.7H370.6v-18.7h52.3v-85.3c0-46.4,32.6-84.1,72.9-84.1C536,191.5,568.7,229.2,568.7,275.6z"/></g></g><g></g><g></g><g></g><g></g><g></g><g></g><g></g><g></g><g></g><g></g><g></g><g></g><g></g><g></g><g></g></g>
</svg>