<?xml version="1.0" encoding="utf-8"?>
<!-- Svg Vector Icons : http://www.onlinewebfonts.com/icon -->
<!DOCTYPE svg PUBLIC "-//W3C//DTD SVG 1.1//EN" "http://www.w3.org/Graphics/SVG/1.1/DTD/svg11.dtd">
<svg version="1.1" xmlns="http://www.w3.org/2000/svg" xmlns:xlink="http://www.w3.org/1999/xlink" x="0px" y="0px" viewBox="0 0 1000 1000" enable-background="new 0 0 1000 1000" xml:space="preserve">
<metadata> Svg Vector Icons : http://www.onlinewebfonts.com/icon </metadata>
<g><g transform="translate(0.000000,511.000000) scale(0.100000,-0.100000)"><path d="M4411.6,4738.7c-111.6-61.3-146.6-227.5-67.8-325.9c24.1-30.6,126.9-100.6,229.7-157.5l185.9-100.6V3133.1V2111.6L2471.3,853.8C73.8-463.1,100-447.8,100-590c0-87.5,76.6-190.3,161.9-218.8c65.6-21.9,91.9-17.5,179.4,19.7c56.9,26.2,105,45.9,109.4,45.9s8.8-813.7,8.8-1809.1c0-1933.7-2.2-1874.7,109.4-1957.8c52.5-37.2,205.6-39.4,4326.9-39.4c3031.9,0,4283.1,6.6,4315.9,21.9c24.1,13.1,63.4,56.9,85.3,94.1c41.6,67.8,43.8,137.8,43.8,3051.6v2979.4l87.5-43.8c129.1-65.6,210-56.9,297.5,30.6c52.5,52.5,74.4,94.1,74.4,142.2c0,144.4-39.4,177.2-500.9,428.8l-439.7,240.6V3505c2.2,741.6-4.4,1124.4-21.9,1152.8c-59.1,111.6-63.4,111.6-903.4,111.6c-829.1,0-855.3-2.2-905.6-105c-8.7-19.7-21.9-310.6-28.4-643.1l-10.9-605.9l-1240.3,675.9C4560.3,4795.6,4534.1,4806.6,4411.6,4738.7z M8500,3476.6v-833.4l-113.8,63.4c-63.4,37.2-275.6,153.1-470.3,258.1l-356.6,192.5v577.5V4310h470.3H8500V3476.6z M7154.7,2848.7l1793.7-977.8l6.6-2981.5l4.4-2979.4H8500h-459.4v1290.6c0,1417.5,0,1408.8-129.1,1474.4c-98.4,52.5-1524.7,52.5-1623.1,0c-129.1-65.6-129.1-56.9-129.1-1474.4V-4090H5700h-459.4V-95.6v3992.2l61.3-35C5334.7,3841.9,6168.1,3386.9,7154.7,2848.7z M4759.4-1257.2V-4090H2900H1040.6v1811.2v1811.2l1855,1021.6c1019.4,560,1855,1021.6,1859.4,1021.6C4757.2,1575.6,4759.4,300.3,4759.4-1257.2z M7559.4-2919.7V-4090H7100h-459.4v1170.3v1170.3H7100h459.4V-2919.7z"/><path d="M6855,1468.4c-345.6-111.6-614.7-415.6-675.9-765.6c-72.2-402.5,227.5-864.1,651.9-1010.6c503.1-172.8,1087.2,196.9,1190,752.5c59.1,323.8-129.1,713.1-439.7,912.2C7351.6,1503.4,7091.2,1542.8,6855,1468.4z M7231.3,1026.6c210-48.1,328.1-210,328.1-446.2C7559.4,293.8,7380,110,7100,110c-185.9,0-367.5,109.4-428.7,255.9c-43.8,102.8-37.2,328.1,10.9,435.3C6769.7,991.6,6988.5,1083.4,7231.3,1026.6z"/><path d="M2075.3-1333.7c-111.6-67.8-120.3-124.7-111.6-947.2l6.6-741.6l72.2-63.4l70-63.4h783.1c857.5,0,844.4-2.2,912.2,131.3c48.1,91.9,48.1,1472.2,2.2,1585.9c-59.1,140-78.8,142.2-914.4,142.2C2191.3-1290,2140.9-1292.2,2075.3-1333.7z M3359.4-2219.7V-2690H2900h-459.4v470.3v470.3H2900h459.4V-2219.7z"/></g></g>
</svg>