<?xml version="1.0" encoding="utf-8"?>
<!-- Generator: Adobe Illustrator 23.0.1, SVG Export Plug-In . SVG Version: 6.00 Build 0)  -->
<svg version="1.1" id="Layer_1" xmlns="http://www.w3.org/2000/svg" xmlns:xlink="http://www.w3.org/1999/xlink" x="0px" y="0px"
	 viewBox="0 0 100 100" style="enable-background:new 0 0 100 100;" xml:space="preserve">
<path d="M79,5H21c-4.4,0-8,3.6-8,8v74c0,4.4,3.6,8,8,8h58c4.4,0,8-3.6,8-8V13C87,8.6,83.4,5,79,5z M83,87c0,2.2-1.8,4-4,4H21
	c-2.2,0-4-1.8-4-4V13c0-2.2,1.8-4,4-4h58c2.2,0,4,1.8,4,4V87z M75,15H25c-1.1,0-2,0.9-2,2v36c0,1.1,0.9,2,2,2h16h18h16
	c1.1,0,2-0.9,2-2V17C77,15.9,76.1,15,75,15z M43,51v-3c0-3.9,3.1-7,7-7c3.9,0,7,3.1,7,7v3H43z M46,33c0-2.2,1.8-4,4-4
	c2.2,0,4,1.8,4,4s-1.8,4-4,4C47.8,37,46,35.2,46,33z M73,51H61v-3c0-4-2.1-7.5-5.3-9.4c1.4-1.4,2.3-3.4,2.3-5.6c0-4.4-3.6-8-8-8
	s-8,3.6-8,8c0,2.2,0.9,4.2,2.3,5.6C41.1,40.5,39,44,39,48v3H27V19h46V51z M67,63v20c0,1.1-0.9,2-2,2s-2-0.9-2-2V63c0-1.1,0.9-2,2-2
	S67,61.9,67,63z M77,69v8c0,1.1-0.9,2-2,2s-2-0.9-2-2v-8c0-1.1,0.9-2,2-2S77,67.9,77,69z M57,69v8c0,1.1-0.9,2-2,2s-2-0.9-2-2v-8
	c0-1.1,0.9-2,2-2S57,67.9,57,69z M27,63c0,1.1-0.9,2-2,2s-2-0.9-2-2c0-1.1,0.9-2,2-2S27,61.9,27,63z M27,73c0,1.1-0.9,2-2,2
	s-2-0.9-2-2c0-1.1,0.9-2,2-2S27,71.9,27,73z M27,83c0,1.1-0.9,2-2,2s-2-0.9-2-2c0-1.1,0.9-2,2-2S27,81.9,27,83z M37,63
	c0,1.1-0.9,2-2,2s-2-0.9-2-2c0-1.1,0.9-2,2-2S37,61.9,37,63z M37,73c0,1.1-0.9,2-2,2s-2-0.9-2-2c0-1.1,0.9-2,2-2S37,71.9,37,73z
	 M37,83c0,1.1-0.9,2-2,2s-2-0.9-2-2c0-1.1,0.9-2,2-2S37,81.9,37,83z M47,63c0,1.1-0.9,2-2,2s-2-0.9-2-2c0-1.1,0.9-2,2-2
	S47,61.9,47,63z M47,73c0,1.1-0.9,2-2,2s-2-0.9-2-2c0-1.1,0.9-2,2-2S47,71.9,47,73z M47,83c0,1.1-0.9,2-2,2s-2-0.9-2-2
	c0-1.1,0.9-2,2-2S47,81.9,47,83z"/>
</svg>
