<?xml version="1.0" encoding="utf-8"?>
<!-- Svg Vector Icons : http://www.onlinewebfonts.com/icon -->
<!DOCTYPE svg PUBLIC "-//W3C//DTD SVG 1.1//EN" "http://www.w3.org/Graphics/SVG/1.1/DTD/svg11.dtd">
<svg version="1.1" xmlns="http://www.w3.org/2000/svg" xmlns:xlink="http://www.w3.org/1999/xlink" x="0px" y="0px" viewBox="0 0 1000 1000" enable-background="new 0 0 1000 1000" xml:space="preserve">
<metadata> Svg Vector Icons : http://www.onlinewebfonts.com/icon </metadata>
<g><path d="M500,990C230,990,10,770,10,500C10,230,230,10,500,10s490,220,490,490C990,770,770,990,500,990z M500,26.6C239.3,26.6,26.6,239.3,26.6,500c0,260.7,212.6,473.4,473.4,473.4c260.7,0,473.4-212.6,473.4-473.4C973.4,239.3,760.7,26.6,500,26.6z"/><path d="M498.2,280c-5.5,0-9.2-3.7-9.2-9.2v-53.6c0-5.5,3.7-9.2,9.2-9.2c5.5,0,9.2,3.7,9.2,9.2v53.6C507.4,276.3,503.7,280,498.2,280z"/><path d="M359.5,326.2c-1.8,0-3.7,0-5.5-1.8l-37-37c-3.7-3.7-3.7-9.2,0-12.9c3.7-3.7,9.2-3.7,12.9,0l37,37c3.7,3.7,3.7,9.2,0,12.9C363.2,326.2,361.3,326.2,359.5,326.2z"/><path d="M291.1,470.4h-53.6c-5.5,0-9.2-3.7-9.2-9.2c0-5.5,3.7-9.2,9.2-9.2h53.6c5.5,0,9.2,3.7,9.2,9.2C298.5,466.7,294.8,470.4,291.1,470.4z"/><path d="M298.5,644.2c-1.8,0-3.7,0-5.5-1.8c-3.7-3.7-3.7-9.2,0-12.9l37-37c3.7-3.7,9.2-3.7,12.9,0c3.7,3.7,3.7,9.2,0,12.9l-37,37C302.2,644.2,300.3,644.2,298.5,644.2z"/><path d="M640.5,326.2c-1.8,0-3.7,0-5.5-1.8c-3.7-3.7-3.7-9.2,0-12.9l37-37c3.7-3.7,9.2-3.7,12.9,0c3.7,3.7,3.7,9.2,0,12.9l-37,37C646.1,326.2,642.4,326.2,640.5,326.2z"/><path d="M762.6,470.4h-53.6c-5.5,0-9.2-3.7-9.2-9.2c0-5.5,3.7-9.2,9.2-9.2h53.6c5.5,0,9.2,3.7,9.2,9.2C771.8,466.7,768.1,470.4,762.6,470.4z"/><path d="M701.5,644.2c-1.8,0-3.7,0-5.5-1.8l-37-37c-3.7-3.7-3.7-9.2,0-12.9c3.7-3.7,9.2-3.7,12.9,0l37,37c3.7,3.7,3.7,9.2,0,12.9C705.2,644.2,703.4,644.2,701.5,644.2z"/><path d="M572.1,662.7H439c-5.5,0-9.2-3.7-9.2-9.2c0-5.5,3.7-9.2,9.2-9.2h133.1c5.5,0,9.2,3.7,9.2,9.2C581.4,659,577.7,662.7,572.1,662.7z"/><path d="M535.1,790.3h-57.3c-14.8,0-27.7-14.8-27.7-33.3v-25.9c0-5.5,3.7-9.2,9.2-9.2s9.2,3.7,9.2,9.2V757c0,9.2,5.5,16.6,11.1,16.6H537c5.5,0,11.1-7.4,11.1-16.6v-25.9c0-5.5,3.7-9.2,9.2-9.2c5.5,0,9.2,3.7,9.2,9.2V757C562.9,775.5,549.9,790.3,535.1,790.3z"/><path d="M572.1,738.5H439c-5.5,0-9.2-3.7-9.2-9.2V672c0-24-14.8-49.9-31.4-77.7c-20.3-35.1-44.4-75.8-44.4-120.2c0-83.2,68.4-151.6,151.6-151.6c83.2,0,151.6,68.4,151.6,151.6c0,46.2-24,85.1-44.4,120.2c-16.6,27.7-31.4,55.5-31.4,77.7v57.3C581.4,734.8,577.7,738.5,572.1,738.5z M448.2,721.9h116.5v-48.1c0-27.7,16.6-57.3,35.1-86.9c20.3-35.1,42.5-72.1,42.5-112.8c0-74-59.2-133.1-133.1-133.1c-74,0-133.1,59.2-133.1,133.1c0,40.7,20.3,77.7,42.5,112.8c18.5,29.6,35.1,59.2,35.1,86.9v48.1H448.2z"/><path d="M398.3,483.4c-5.5,0-9.2-3.7-9.2-9.2c0-46.2,16.6-74,53.6-96.2c3.7-1.8,9.2-1.8,11.1,3.7c1.8,3.7,1.8,9.2-3.7,11.1c-31.4,18.5-44.4,40.7-44.4,79.5C405.7,479.7,402,483.4,398.3,483.4z"/><path d="M568.4,703.4H442.7c-5.5,0-9.2-3.7-9.2-9.2s3.7-9.2,9.2-9.2h125.7c5.5,0,9.2,3.7,9.2,9.2S572.1,703.4,568.4,703.4z"/></g>
</svg>