<?xml version="1.0" encoding="utf-8"?>
<!-- Svg Vector Icons : http://www.onlinewebfonts.com/icon -->
<!DOCTYPE svg PUBLIC "-//W3C//DTD SVG 1.1//EN" "http://www.w3.org/Graphics/SVG/1.1/DTD/svg11.dtd">
<svg version="1.1" xmlns="http://www.w3.org/2000/svg" xmlns:xlink="http://www.w3.org/1999/xlink" x="0px" y="0px" viewBox="0 0 1000 1000" enable-background="new 0 0 1000 1000" xml:space="preserve">
<metadata> Svg Vector Icons : http://www.onlinewebfonts.com/icon </metadata>
<g><g transform="translate(0.000000,511.000000) scale(0.100000,-0.100000)"><path d="M1160.2,4997.9c-67.5-34.8-90.1-106.4-90.1-294.7c0-165.8-22.5-223.1-51.2-131c-22.5,67.5-133,180.1-223.1,229.2c-110.5,57.3-317.3,59.4-421.6,6.1C192.1,4711.3,100,4564,100,4365.4c0-198.5,92.1-345.9,274.3-442.1c104.4-53.2,311.1-51.2,421.6,6.1c90.1,49.1,200.6,161.7,223.1,229.2c6.1,24.6,22.5,43,32.7,43s18.4-1610.8,18.4-4185.7c0-2945.3,6.1-4197.9,22.5-4230.7c20.5-43,612-501.5,728.7-564.9c28.7-16.4,73.7-22.5,100.3-16.4c26.6,8.2,178.1,110.5,337.7,229.2l288.6,214.9l268.1-202.6c315.2-237.4,350-257.9,413.5-241.5c67.5,16.4,730.7,513.7,761.4,571c20.5,34.8,24.6,945.6,26.6,4236.8v4189.8H5000h982.5V11.9c2-3291.2,6.1-4202,26.6-4236.8c30.7-57.3,693.9-554.7,761.4-571c63.4-16.4,94.1,2,413.4,241.5l270.2,202.6l286.5-214.9c159.6-120.7,313.1-223.1,343.8-229.2c65.5-12.3,86,0,513.7,319.3c157.6,118.7,296.8,235.4,309.1,262c16.3,32.8,22.5,1287.4,22.5,4230.7c0,2574.8,8.2,4185.7,18.4,4185.7c10.2,0,26.6-18.4,32.7-43c22.5-67.5,133-180.1,223.1-229.2c114.6-59.4,317.3-61.4,431.9,0c176,92.1,264,239.5,264,436c0,196.5-88,343.9-264,436c-114.6,61.4-317.2,59.4-431.9,0c-90.1-49.1-200.6-161.7-223.1-229.2c-28.7-92.1-51.2-34.8-51.2,131c0,94.2-10.2,194.4-22.5,221c-24.6,53.2-96.2,96.2-159.7,96.2c-20.5,0-171.9-102.3-337.7-227.2l-300.9-225.1l-270.2,202.6c-321.3,239.5-350,257.9-417.5,239.5c-28.6-6.1-180.1-108.5-337.7-227.2l-284.5-214.9l-270.2,202.6c-323.4,243.6-347.9,255.8-425.7,239.5c-90.1-20.5-120.8-98.2-120.8-307v-174H5000h-982.5v174c0,208.8-30.7,286.5-122.8,307c-77.8,16.4-122.8-10.2-450.3-255.8l-245.6-186.3L2914.3,4783c-157.6,118.7-307,221.1-335.7,227.2c-67.5,18.4-96.2,0-417.5-239.5l-270.2-202.6L1604.4,4783C1313.7,5002,1240,5036.8,1160.2,4997.9z M691.5,4478c102.3-100.3,30.7-276.3-112.6-276.3c-83.9,0-163.7,79.8-163.7,163.7c0,83.9,79.8,163.7,163.7,163.7C617.8,4529.2,660.8,4510.7,691.5,4478z M1647.4,4349.1l77.8-55.3V-10.6V-4315l-163.7,124.8l-163.7,124.8V233v4300.3l88-65.5C1532.7,4433,1606.4,4377.7,1647.4,4349.1z M2380.1,226.8v-4304.4l-77.8-55.3c-40.9-28.6-114.6-83.9-161.7-118.7l-88-65.5V-16.7v4298.2l159.6,122.8c86,67.5,159.7,122.8,163.7,122.8C2378.1,4529.2,2380.1,2592.9,2380.1,226.8z M2957.3,4349.1l77.8-55.3V-10.6V-4315l-163.7,124.8l-163.7,124.8V233v4300.3l88-65.5C2842.7,4433,2916.4,4377.7,2957.3,4349.1z M3690,230.9v-4296.2l-163.7-124.8L3362.6-4315V-10.6l2,4304.4l157.6,116.7c86,65.5,159.7,118.7,163.7,118.7C3688,4529.2,3690,2595,3690,230.9z M6637.4-16.7V-4315l-163.7,124.8l-163.7,124.8V233v4298.2l163.7-124.9l163.7-124.9V-16.7z M7292.4,230.9v-4296.2l-163.7-124.8L6964.9-4315V-10.6l2.1,4304.4l157.6,116.7c86,65.5,159.7,118.7,163.8,118.7C7290.4,4529.2,7292.4,2595,7292.4,230.9z M7947.4-16.7V-4317l-86,65.5c-49.1,34.8-122.8,90.1-163.7,118.7l-77.8,55.3V226.8v4304.4l163.7-124.9l163.7-124.9V-16.7z M8602.3,230.9v-4296.2l-163.7-124.8L8274.8-4315V-10.6l2,4304.4l157.6,116.7c86,65.5,159.7,118.7,163.7,118.7C8600.3,4529.2,8602.3,2595,8602.3,230.9z M9533.6,4478c32.7-30.7,51.2-73.7,51.2-112.6c0-38.9-18.4-81.9-51.2-112.6c-30.7-32.8-73.7-51.2-112.6-51.2s-81.9,18.4-112.6,51.2c-32.7,30.7-51.2,73.7-51.2,112.6c0,38.9,18.4,81.9,51.2,112.6c30.7,32.7,73.7,51.2,112.6,51.2S9502.9,4510.7,9533.6,4478z"/></g></g>
</svg>