<?xml version="1.0" encoding="utf-8"?>
<!-- Svg Vector Icons : http://www.onlinewebfonts.com/icon -->
<!DOCTYPE svg PUBLIC "-//W3C//DTD SVG 1.1//EN" "http://www.w3.org/Graphics/SVG/1.1/DTD/svg11.dtd">
<svg version="1.1" xmlns="http://www.w3.org/2000/svg" xmlns:xlink="http://www.w3.org/1999/xlink" x="0px" y="0px" viewBox="0 0 1000 1000" enable-background="new 0 0 1000 1000" xml:space="preserve">
<metadata> Svg Vector Icons : http://www.onlinewebfonts.com/icon </metadata>
<g><path d="M74.1,743.6c7.1-1.9,142.5-46.7,142.5-46.7s-13-41-14.6-48.8c-2-9.1-5.3-9.3-8-9.7h-0.7l-139.5-1.2C53.8,637.1,69.4,716.7,74.1,743.6z"/><path d="M404.6,695.8c0,0-317.7,131.7-325.6,134.2c-3.2,20.4-18.2,84.3-18.2,84.3h135.2c0,0,11.5,0.2,13.7-8.9c9-37.1,15.1-70.7,15.6-72c1-3.3,2.9-8.3,8.8-11.3c3.1-1.6,233.4-118.3,233.4-118.3s0-23.2,0-39.6h-62.9V695.8z"/><path d="M144.9,391.9c0-14.2-0.1-23.9-0.2-30.3c-22.3-11.1-93.1-47.6-108.6-55.2C36,320.6,36,336.5,36,336.5v0.1c-0.1,0.4-0.1,0.8-0.1,1.3c0,4.9,1.1,15.2,6.7,18.4c7.7,4.4,86.1,46.1,102.5,55c-0.2-2.8-0.2-5.7-0.2-8.6c0-0.2,0-0.3,0-0.5C144.9,398.5,144.9,395.2,144.9,391.9z"/><path d="M989.7,389.8c-0.3-1.2-1.9-2.5-4.5-3.9c-11.4-0.5-62.6-2.9-117.9-5.6c-2.3,42.9-6.3,116-7.3,120.9c-0.6,2.9-7.2,15.9-16.2,32.3c2.3,1.6,4.4,2.9,5.9,3.8c5.3,3,15.4,4.5,19.9-0.6c2.9-3.5,19.5-23.1,38.7-46c27.3-32.6,58.3-69.4,65.7-77.8l5.5-6.1c7.6-8.4,10.4-11.8,10.4-15.3C990,391,989.9,390.4,989.7,389.8z"/><path d="M376.2,575.2c-13.8,21.6-32.3,33.6-52.3,33.6c-9.4,0-18.5-2.8-26.8-7.9c0,13.8,0,26,0,30.4c12.4,0,157.9,0,170.3,0c0-3.3,0-11.1,0-20.7c-25.5-13-55.5-28.2-86.5-44C379.4,569.6,377.9,572.5,376.2,575.2z"/><path d="M364.3,567.8c1.5-2.4,2.9-4.9,4.2-7.5c-35.4-18-71.3-36.3-102.7-52.2c3,48.7,27.9,86.8,58.1,86.8C339,594.8,353.2,585.3,364.3,567.8z"/><path d="M503.8,538.6l-2.7-1.5c-5.6-2.4-210.9-103.7-342.3-168.6c0,5.8,0,13.4,0,23.1c0,3.3,0,6.8,0,10.6c0,0.1,0,0.3,0,0.5c0,37.7,12.4,42.7,19,45.4c8.8,3.7,289.3,146.7,331.8,168.4c-0.1-1-0.1-2.2-0.1-3.4l1.9-70.9C508.5,541.2,505.8,539.7,503.8,538.6z"/><path d="M543.1,505.5c15.4-19.9,86.8-102.4,90.5-106.9c2.2-2.9,33.8-42.2,88-39.4c38.1,1.9,165.3,8.1,229.3,11.1c-8.7-3.9-16.1-7.1-16.1-7.1l-94.1-41.8l-29.1-12.8l-56.3-24.9c-32.9-14.7-66.9-29.8-100.5-44.4l-61.2-27.2c-29.3-13.2-59.5-26.7-89.5-39.3c-13.5-5.6-61.4-27.5-74.4-33.4c-27-12.1-54.9-24.7-83.8-33.8c-7.5-2.3-41.6-8.9-50-9.4l-81.4-4c-47.4-2.3-101.1-5-113-5.7c-36.6-2.3-54,0-60.1,20c-3.4,11.1-20.9,101.1-27.1,125.1c-1.6,5.8-2.3,10.6-2.3,14.6c0,13.6,8.1,17.4,17.7,21.8l4.2,2c3.7,1.9,474.4,233.2,483.9,237.6c-0.1,0-0.1-0.1-0.1-0.1l0.1,0.1l0,0l3.8,1.9C528,512.9,533,515.6,543.1,505.5z"/><path d="M721,373.1c-47.5-2.5-76.1,33.8-76.4,34.1l-0.2,0.2c-0.9,1-87.3,105.2-101.8,123.9l-0.2,0.4L542,532c-6,6.1-11.6,9.3-16.6,10.7c-0.6,26.5-1.8,70.7-1.8,70.7c0,0.4-0.1,0.7-0.1,1c0,9.7,3.9,15.2,22.3,16.5c11,0.9,185.7,5.9,198.9,5.7c11-0.2,19.6-1.1,29.2-12.3c11.4-13.4,69.1-117,72.6-126.1c0.8-6,4.2-66.8,7-118.7C799.1,376.9,744,374.4,721,373.1z M772.2,460.5c-4.5,13.8-24.1,81.4-24.1,81.4s-2.5,11.9-8.6,15.7c-6,4.2-17.5,3.1-17.5,3.1c-11.3-0.5-22.8-1-34.1-1.4c-18.7-0.6-64.1-2.5-68.1-2.6c-4.2,0-12.8-2-14.6-6.5c-2.4-5.9-0.1-13.2,1.6-19.1c2.2-7.9,4.7-15.7,6.9-23.5c4.7-16.5,9.4-32.9,14.5-49.3c2.4-8.1,3.1-16.3,10.2-22.3c7.5-6.4,16.9-5.6,26-5.4c8.8,0.2,17.7,0.3,26.4,0.5c18.6,0.6,37.1,1.5,55.7,2.3c5.6,0.3,11.1,0.5,16.8,0.9C778.5,435.2,776.8,446.7,772.2,460.5z"/><path d="M297.1,664.1c0,14.2,0,21.9,0,21.9L55.3,769.2l-1.3-7.4c-8-44.6-20-115.2-22-124.7H10c0,34,0,246.8,0,277.3h26.5c2.9-18.4,18.4-85.9,18.6-87l0.7-4.2c0,0,325.5-134.3,334.9-137.4c0-6.1,0-9,0-21.7H297.1z"/></g>
</svg>