<?xml version="1.0" encoding="utf-8"?>
<!-- Svg Vector Icons : http://www.onlinewebfonts.com/icon -->
<!DOCTYPE svg PUBLIC "-//W3C//DTD SVG 1.1//EN" "http://www.w3.org/Graphics/SVG/1.1/DTD/svg11.dtd">
<svg version="1.1" xmlns="http://www.w3.org/2000/svg" xmlns:xlink="http://www.w3.org/1999/xlink" x="0px" y="0px" viewBox="0 0 1000 1000" enable-background="new 0 0 1000 1000" xml:space="preserve">
<metadata> Svg Vector Icons : http://www.onlinewebfonts.com/icon </metadata>
<g><g transform="translate(0.000000,392.000000) scale(0.100000,-0.100000)"><path d="M625.5,2601.5c-201.4-65.2-372.1-216.7-473.7-423.8L100,2072.2V-545.6v-2617.8l51.8-111.2c67.1-143.8,226.3-310.7,370.1-385.5l115.1-59.4l1693.4-5.8l1691.5-3.8v-161.1v-161.1l-349-7.7c-339.4-5.8-354.8-7.7-452.6-59.5c-191.8-101.6-326-283.8-345.2-473.7c-5.8-74.8,0-97.8,40.3-145.8l47.9-55.6H5000h2036.7l47.9,55.6c42.2,49.9,47.9,69.1,38.3,151.5c-24.9,199.5-159.2,379.7-356.7,469.9c-101.6,47.9-128.5,51.8-446.8,57.5l-341.4,7.7v161.1v161.1l1693.4,3.8l1691.5,5.8l115.1,59.4c143.8,74.8,303,241.7,370.1,385.5l51.8,111.2v2617.8v2617.8l-55.6,115.1c-72.9,147.7-237.8,312.6-385.5,385.5l-115.1,55.6l-4305.5,3.8C943.8,2636,727.1,2634.1,625.5,2601.5z M9317,2290.8c74.8-24.9,189.9-105.5,189.9-134.2c0-9.6-1676.2-17.3-4506.8-17.3c-2830.7,0-4506.9,7.7-4506.9,17.3c0,26.8,113.1,107.4,182.2,132.3C759.7,2317.6,9228.8,2319.6,9317,2290.8z M9583.6-555.2v-2368.5H5000H416.4v2368.5v2368.5H5000h4583.6V-555.2z M9476.2-3290c-19.2-23-71-57.5-113.2-76.7c-72.9-34.5-243.6-36.4-4363-36.4c-4119.4,0-4290.1,1.9-4363,36.4c-42.2,19.2-94,53.7-113.1,76.7l-36.4,40.3H5000h4512.6L9476.2-3290z M5652.1-3901.8v-153.4H5000h-652.1v153.4v153.4H5000h652.1V-3901.8z M6632.1-4398.5c17.3,0,51.8-19.2,76.7-40.3c46-36.4,38.3-36.4-1706.8-38.4c-1557.3,0-1749,3.8-1727.9,28.8c13.4,15.3,47.9,34.5,78.6,44.1C3394.8-4394.7,6480.5-4387,6632.1-4398.5z"/><path d="M1480.8,1470c-30.7-19.2-211-189.9-397-379.7c-303-304.9-341.4-350.9-341.4-406.6c0-86.3,88.2-174.5,174.5-174.5c55.6,0,103.6,40.3,416.2,350.9c193.7,191.8,364.4,375.9,379.7,410.4C1774.2,1414.4,1613.1,1554.4,1480.8,1470z"/><path d="M2324.7,1489.2c-21.1-9.6-164.9-145.8-320.3-303c-297.3-301.1-310.7-322.2-255.1-425.8c30.7-61.4,63.3-78.6,149.6-78.6c53.7,0,99.7,38.4,354.8,293.4c253.2,253.2,291.5,299.2,291.5,352.9C2545.2,1439.3,2420.5,1529.4,2324.7,1489.2z"/><path d="M3130.1,1479.6c-32.6-13.4-103.6-74.8-159.2-134.2c-80.6-88.2-99.7-122.7-99.7-176.4c0-94,71-161.1,168.8-161.1c67.1,0,86.3,13.4,201.4,132.3c72.9,74.8,128.5,149.6,128.5,170.7c0,78.6-38.4,140-105.5,166.8C3187.7,1510.2,3201.1,1510.2,3130.1,1479.6z"/><path d="M2286.3,645.3c-30.7-19.2-391.2-372.1-801.6-782.5C784.7-839.1,742.5-887,742.5-950.3c0-97.8,71-170.7,166.9-170.7c69,0,99.7,26.8,853.4,782.5c734.5,732.6,782.5,784.4,782.5,847.7c-1.9,74.8-26.8,117-90.1,149.6C2395.6,691.3,2353.4,687.5,2286.3,645.3z"/><path d="M959.2,139C775.1-45.1,742.5-87.3,742.5-137.2c0-90.1,72.9-166.8,161.1-166.8c63.3,0,90.1,19.2,280,209c180.3,180.3,211,218.6,211,272.3c0,86.3-17.3,118.9-78.6,149.6C1214.2,380.6,1187.4,367.2,959.2,139z"/></g></g>
</svg>